  0
SECTION
  2
HEADER
  9
$ACADVER
  1
AC1009
  9
$FILLMODE
 70
 0
  9
$SPLFRAME
 70
 1
  9
$EXTMIN
 10
0
 20
0
 30
0.0
  9
$EXTMAX
 10
1058.33
 20
1058.33
 30
0.0
  0
ENDSEC
  0
SECTION
  2
TABLES
  0
TABLE
  2
LAYER
 70
1
  0
LAYER
  2
0
 70
     0
 62
     7
  6
CONTINUOUS
  0
ENDTAB
  0
ENDSEC
  0
SECTION
  2
ENTITIES
  0
LINE
  8
0
 62
     0
 10
0.0950846
 20
95.5075
 30
0.0
 11
381.095
 21
95.5075
 31
0.0
  0
LINE
  8
0
 62
     0
 10
381.095
 20
95.5075
 30
0.0
 11
381.095
 21
0.257693
 31
0.0
  0
LINE
  8
0
 62
     0
 10
381.095
 20
0.257693
 30
0.0
 11
0.0950846
 21
0.257693
 31
0.0
  0
LINE
  8
0
 62
     0
 10
0.0950846
 20
0.257693
 30
0.0
 11
0.0950846
 21
95.5075
 31
0.0
  0
LINE
  8
0
 62
     0
 10
150.257
 20
16.7831
 30
0.0
 11
150.257
 21
12.0826
 31
0.0
  0
LINE
  8
0
 62
     0
 10
150.257
 20
12.0826
 30
0.0
 11
93.956
 21
12.0826
 31
0.0
  0
LINE
  8
0
 62
     0
 10
93.956
 20
12.0826
 30
0.0
 11
93.956
 21
15.3128
 31
0.0
  0
LINE
  8
0
 62
     0
 10
93.956
 20
15.3128
 30
0.0
 11
92.232
 21
15.3128
 31
0.0
  0
LINE
  8
0
 62
     0
 10
92.232
 20
15.3128
 30
0.0
 11
92.232
 21
16.2347
 31
0.0
  0
LINE
  8
0
 62
     0
 10
92.232
 20
16.2347
 30
0.0
 11
88.9317
 21
16.2347
 31
0.0
  0
LINE
  8
0
 62
     0
 10
88.9317
 20
16.2347
 30
0.0
 11
88.9317
 21
15.3128
 31
0.0
  0
LINE
  8
0
 62
     0
 10
88.9317
 20
15.3128
 30
0.0
 11
87.2063
 21
15.3128
 31
0.0
  0
LINE
  8
0
 62
     0
 10
87.2063
 20
15.3128
 30
0.0
 11
87.2063
 21
12.0826
 31
0.0
  0
LINE
  8
0
 62
     0
 10
87.2063
 20
12.0826
 30
0.0
 11
86.3808
 21
12.0826
 31
0.0
  0
LINE
  8
0
 62
     0
 10
86.3808
 20
12.0826
 30
0.0
 11
86.3808
 21
9.28384
 31
0.0
  0
LINE
  8
0
 62
     0
 10
86.3808
 20
9.28384
 30
0.0
 11
87.2063
 21
9.28384
 31
0.0
  0
LINE
  8
0
 62
     0
 10
87.2063
 20
9.28384
 30
0.0
 11
87.2063
 21
3.01377
 31
0.0
  0
LINE
  8
0
 62
     0
 10
87.2063
 20
3.01377
 30
0.0
 11
88.9317
 21
3.01377
 31
0.0
  0
LINE
  8
0
 62
     0
 10
88.9317
 20
3.01377
 30
0.0
 11
88.9317
 21
2.03261
 31
0.0
  0
LINE
  8
0
 62
     0
 10
88.9317
 20
2.03261
 30
0.0
 11
92.232
 21
2.03261
 31
0.0
  0
LINE
  8
0
 62
     0
 10
92.232
 20
2.03261
 30
0.0
 11
92.232
 21
3.01377
 31
0.0
  0
LINE
  8
0
 62
     0
 10
92.232
 20
3.01377
 30
0.0
 11
93.956
 21
3.01377
 31
0.0
  0
LINE
  8
0
 62
     0
 10
93.956
 20
3.01377
 30
0.0
 11
93.956
 21
7.48411
 31
0.0
  0
LINE
  8
0
 62
     0
 10
93.956
 20
7.48411
 30
0.0
 11
150.257
 21
7.48411
 31
0.0
  0
LINE
  8
0
 62
     0
 10
150.257
 20
7.48411
 30
0.0
 11
150.257
 21
2.78364
 31
0.0
  0
LINE
  8
0
 62
     0
 10
150.257
 20
2.78364
 30
0.0
 11
164.257
 21
2.78364
 31
0.0
  0
LINE
  8
0
 62
     0
 10
164.257
 20
2.78364
 30
0.0
 11
164.257
 21
7.48411
 31
0.0
  0
LINE
  8
0
 62
     0
 10
164.257
 20
7.48411
 30
0.0
 11
220.556
 21
7.48411
 31
0.0
  0
LINE
  8
0
 62
     0
 10
220.556
 20
7.48411
 30
0.0
 11
220.556
 21
3.01377
 31
0.0
  0
LINE
  8
0
 62
     0
 10
220.556
 20
3.01377
 30
0.0
 11
222.282
 21
3.01377
 31
0.0
  0
LINE
  8
0
 62
     0
 10
222.282
 20
3.01377
 30
0.0
 11
222.282
 21
2.03261
 31
0.0
  0
LINE
  8
0
 62
     0
 10
222.282
 20
2.03261
 30
0.0
 11
225.582
 21
2.03261
 31
0.0
  0
LINE
  8
0
 62
     0
 10
225.582
 20
2.03261
 30
0.0
 11
225.582
 21
3.01377
 31
0.0
  0
LINE
  8
0
 62
     0
 10
225.582
 20
3.01377
 30
0.0
 11
227.306
 21
3.01377
 31
0.0
  0
LINE
  8
0
 62
     0
 10
227.306
 20
3.01377
 30
0.0
 11
227.306
 21
9.28384
 31
0.0
  0
LINE
  8
0
 62
     0
 10
227.306
 20
9.28384
 30
0.0
 11
228.132
 21
9.28384
 31
0.0
  0
LINE
  8
0
 62
     0
 10
228.132
 20
9.28384
 30
0.0
 11
228.132
 21
12.0826
 31
0.0
  0
LINE
  8
0
 62
     0
 10
228.132
 20
12.0826
 30
0.0
 11
227.306
 21
12.0826
 31
0.0
  0
LINE
  8
0
 62
     0
 10
227.306
 20
12.0826
 30
0.0
 11
227.306
 21
15.3128
 31
0.0
  0
LINE
  8
0
 62
     0
 10
227.306
 20
15.3128
 30
0.0
 11
225.582
 21
15.3128
 31
0.0
  0
LINE
  8
0
 62
     0
 10
225.582
 20
15.3128
 30
0.0
 11
225.582
 21
16.2347
 31
0.0
  0
LINE
  8
0
 62
     0
 10
225.582
 20
16.2347
 30
0.0
 11
222.282
 21
16.2347
 31
0.0
  0
LINE
  8
0
 62
     0
 10
222.282
 20
16.2347
 30
0.0
 11
222.282
 21
15.3128
 31
0.0
  0
LINE
  8
0
 62
     0
 10
222.282
 20
15.3128
 30
0.0
 11
220.556
 21
15.3128
 31
0.0
  0
LINE
  8
0
 62
     0
 10
220.556
 20
15.3128
 30
0.0
 11
220.556
 21
12.0826
 31
0.0
  0
LINE
  8
0
 62
     0
 10
220.556
 20
12.0826
 30
0.0
 11
164.257
 21
12.0826
 31
0.0
  0
LINE
  8
0
 62
     0
 10
164.257
 20
12.0826
 30
0.0
 11
164.257
 21
16.7831
 31
0.0
  0
LINE
  8
0
 62
     0
 10
164.257
 20
16.7831
 30
0.0
 11
150.257
 21
16.7831
 31
0.0
  0
LINE
  8
0
 62
     0
 10
64.5322
 20
16.7831
 30
0.0
 11
78.5315
 21
16.7831
 31
0.0
  0
LINE
  8
0
 62
     0
 10
78.5315
 20
16.7831
 30
0.0
 11
78.5315
 21
2.78364
 31
0.0
  0
LINE
  8
0
 62
     0
 10
78.5315
 20
2.78364
 30
0.0
 11
64.5322
 21
2.78364
 31
0.0
  0
LINE
  8
0
 62
     0
 10
64.5322
 20
2.78364
 30
0.0
 11
64.5322
 21
16.7831
 31
0.0
  0
LINE
  8
0
 62
     0
 10
14.5259
 20
35.833
 30
0.0
 11
14.5259
 21
31.1326
 31
0.0
  0
LINE
  8
0
 62
     0
 10
14.5259
 20
31.1326
 30
0.0
 11
13.0004
 21
31.1326
 31
0.0
  0
LINE
  8
0
 62
     0
 10
13.0004
 20
31.1326
 30
0.0
 11
13.0004
 21
34.3628
 31
0.0
  0
LINE
  8
0
 62
     0
 10
13.0004
 20
34.3628
 30
0.0
 11
11.2751
 21
34.3628
 31
0.0
  0
LINE
  8
0
 62
     0
 10
11.2751
 20
34.3628
 30
0.0
 11
11.2751
 21
35.2848
 31
0.0
  0
LINE
  8
0
 62
     0
 10
11.2751
 20
35.2848
 30
0.0
 11
7.97609
 21
35.2848
 31
0.0
  0
LINE
  8
0
 62
     0
 10
7.97609
 20
35.2848
 30
0.0
 11
7.97609
 21
34.3628
 31
0.0
  0
LINE
  8
0
 62
     0
 10
7.97609
 20
34.3628
 30
0.0
 11
6.2508
 21
34.3628
 31
0.0
  0
LINE
  8
0
 62
     0
 10
6.2508
 20
34.3628
 30
0.0
 11
6.2508
 21
31.1326
 31
0.0
  0
LINE
  8
0
 62
     0
 10
6.2508
 20
31.1326
 30
0.0
 11
5.42533
 21
31.1326
 31
0.0
  0
LINE
  8
0
 62
     0
 10
5.42533
 20
31.1326
 30
0.0
 11
5.42533
 21
28.3338
 31
0.0
  0
LINE
  8
0
 62
     0
 10
5.42533
 20
28.3338
 30
0.0
 11
6.2508
 21
28.3338
 31
0.0
  0
LINE
  8
0
 62
     0
 10
6.2508
 20
28.3338
 30
0.0
 11
6.2508
 21
22.0638
 31
0.0
  0
LINE
  8
0
 62
     0
 10
6.2508
 20
22.0638
 30
0.0
 11
7.97609
 21
22.0638
 31
0.0
  0
LINE
  8
0
 62
     0
 10
7.97609
 20
22.0638
 30
0.0
 11
7.97609
 21
21.0826
 31
0.0
  0
LINE
  8
0
 62
     0
 10
7.97609
 20
21.0826
 30
0.0
 11
11.2751
 21
21.0826
 31
0.0
  0
LINE
  8
0
 62
     0
 10
11.2751
 20
21.0826
 30
0.0
 11
11.2751
 21
22.0638
 31
0.0
  0
LINE
  8
0
 62
     0
 10
11.2751
 20
22.0638
 30
0.0
 11
13.0004
 21
22.0638
 31
0.0
  0
LINE
  8
0
 62
     0
 10
13.0004
 20
22.0638
 30
0.0
 11
13.0004
 21
26.5327
 31
0.0
  0
LINE
  8
0
 62
     0
 10
13.0004
 20
26.5327
 30
0.0
 11
14.5259
 21
26.5327
 31
0.0
  0
LINE
  8
0
 62
     0
 10
14.5259
 20
26.5327
 30
0.0
 11
14.5259
 21
21.8336
 31
0.0
  0
LINE
  8
0
 62
     0
 10
14.5259
 20
21.8336
 30
0.0
 11
28.5254
 21
21.8336
 31
0.0
  0
LINE
  8
0
 62
     0
 10
28.5254
 20
21.8336
 30
0.0
 11
28.5254
 21
26.5327
 31
0.0
  0
LINE
  8
0
 62
     0
 10
28.5254
 20
26.5327
 30
0.0
 11
30.0509
 21
26.5327
 31
0.0
  0
LINE
  8
0
 62
     0
 10
30.0509
 20
26.5327
 30
0.0
 11
30.0509
 21
22.0638
 31
0.0
  0
LINE
  8
0
 62
     0
 10
30.0509
 20
22.0638
 30
0.0
 11
31.7748
 21
22.0638
 31
0.0
  0
LINE
  8
0
 62
     0
 10
31.7748
 20
22.0638
 30
0.0
 11
31.7748
 21
21.0826
 31
0.0
  0
LINE
  8
0
 62
     0
 10
31.7748
 20
21.0826
 30
0.0
 11
35.0752
 21
21.0826
 31
0.0
  0
LINE
  8
0
 62
     0
 10
35.0752
 20
21.0826
 30
0.0
 11
35.0752
 21
22.0638
 31
0.0
  0
LINE
  8
0
 62
     0
 10
35.0752
 20
22.0638
 30
0.0
 11
36.8004
 21
22.0638
 31
0.0
  0
LINE
  8
0
 62
     0
 10
36.8004
 20
22.0638
 30
0.0
 11
36.8004
 21
28.3338
 31
0.0
  0
LINE
  8
0
 62
     0
 10
36.8004
 20
28.3338
 30
0.0
 11
37.6259
 21
28.3338
 31
0.0
  0
LINE
  8
0
 62
     0
 10
37.6259
 20
28.3338
 30
0.0
 11
37.6259
 21
31.1326
 31
0.0
  0
LINE
  8
0
 62
     0
 10
37.6259
 20
31.1326
 30
0.0
 11
36.8004
 21
31.1326
 31
0.0
  0
LINE
  8
0
 62
     0
 10
36.8004
 20
31.1326
 30
0.0
 11
36.8004
 21
34.3628
 31
0.0
  0
LINE
  8
0
 62
     0
 10
36.8004
 20
34.3628
 30
0.0
 11
35.0752
 21
34.3628
 31
0.0
  0
LINE
  8
0
 62
     0
 10
35.0752
 20
34.3628
 30
0.0
 11
35.0752
 21
35.2848
 31
0.0
  0
LINE
  8
0
 62
     0
 10
35.0752
 20
35.2848
 30
0.0
 11
31.7748
 21
35.2848
 31
0.0
  0
LINE
  8
0
 62
     0
 10
31.7748
 20
35.2848
 30
0.0
 11
31.7748
 21
34.3628
 31
0.0
  0
LINE
  8
0
 62
     0
 10
31.7748
 20
34.3628
 30
0.0
 11
30.0509
 21
34.3628
 31
0.0
  0
LINE
  8
0
 62
     0
 10
30.0509
 20
34.3628
 30
0.0
 11
30.0509
 21
31.1326
 31
0.0
  0
LINE
  8
0
 62
     0
 10
30.0509
 20
31.1326
 30
0.0
 11
28.5254
 21
31.1326
 31
0.0
  0
LINE
  8
0
 62
     0
 10
28.5254
 20
31.1326
 30
0.0
 11
28.5254
 21
35.833
 31
0.0
  0
LINE
  8
0
 62
     0
 10
28.5254
 20
35.833
 30
0.0
 11
14.5259
 21
35.833
 31
0.0
  0
LINE
  8
0
 62
     0
 10
266.937
 20
35.833
 30
0.0
 11
266.937
 21
31.1326
 31
0.0
  0
LINE
  8
0
 62
     0
 10
266.937
 20
31.1326
 30
0.0
 11
265.413
 21
31.1326
 31
0.0
  0
LINE
  8
0
 62
     0
 10
265.413
 20
31.1326
 30
0.0
 11
265.413
 21
34.3628
 31
0.0
  0
LINE
  8
0
 62
     0
 10
265.413
 20
34.3628
 30
0.0
 11
263.688
 21
34.3628
 31
0.0
  0
LINE
  8
0
 62
     0
 10
263.688
 20
34.3628
 30
0.0
 11
263.688
 21
35.2848
 31
0.0
  0
LINE
  8
0
 62
     0
 10
263.688
 20
35.2848
 30
0.0
 11
260.387
 21
35.2848
 31
0.0
  0
LINE
  8
0
 62
     0
 10
260.387
 20
35.2848
 30
0.0
 11
260.387
 21
34.3628
 31
0.0
  0
LINE
  8
0
 62
     0
 10
260.387
 20
34.3628
 30
0.0
 11
258.662
 21
34.3628
 31
0.0
  0
LINE
  8
0
 62
     0
 10
258.662
 20
34.3628
 30
0.0
 11
258.662
 21
31.1326
 31
0.0
  0
LINE
  8
0
 62
     0
 10
258.662
 20
31.1326
 30
0.0
 11
257.838
 21
31.1326
 31
0.0
  0
LINE
  8
0
 62
     0
 10
257.838
 20
31.1326
 30
0.0
 11
257.838
 21
28.3338
 31
0.0
  0
LINE
  8
0
 62
     0
 10
257.838
 20
28.3338
 30
0.0
 11
258.662
 21
28.3338
 31
0.0
  0
LINE
  8
0
 62
     0
 10
258.662
 20
28.3338
 30
0.0
 11
258.662
 21
22.0638
 31
0.0
  0
LINE
  8
0
 62
     0
 10
258.662
 20
22.0638
 30
0.0
 11
260.387
 21
22.0638
 31
0.0
  0
LINE
  8
0
 62
     0
 10
260.387
 20
22.0638
 30
0.0
 11
260.387
 21
21.0826
 31
0.0
  0
LINE
  8
0
 62
     0
 10
260.387
 20
21.0826
 30
0.0
 11
263.688
 21
21.0826
 31
0.0
  0
LINE
  8
0
 62
     0
 10
263.688
 20
21.0826
 30
0.0
 11
263.688
 21
22.0638
 31
0.0
  0
LINE
  8
0
 62
     0
 10
263.688
 20
22.0638
 30
0.0
 11
265.413
 21
22.0638
 31
0.0
  0
LINE
  8
0
 62
     0
 10
265.413
 20
22.0638
 30
0.0
 11
265.413
 21
26.5327
 31
0.0
  0
LINE
  8
0
 62
     0
 10
265.413
 20
26.5327
 30
0.0
 11
266.937
 21
26.5327
 31
0.0
  0
LINE
  8
0
 62
     0
 10
266.937
 20
26.5327
 30
0.0
 11
266.937
 21
21.8336
 31
0.0
  0
LINE
  8
0
 62
     0
 10
266.937
 20
21.8336
 30
0.0
 11
280.938
 21
21.8336
 31
0.0
  0
LINE
  8
0
 62
     0
 10
280.938
 20
21.8336
 30
0.0
 11
280.938
 21
26.5327
 31
0.0
  0
LINE
  8
0
 62
     0
 10
280.938
 20
26.5327
 30
0.0
 11
282.462
 21
26.5327
 31
0.0
  0
LINE
  8
0
 62
     0
 10
282.462
 20
26.5327
 30
0.0
 11
282.462
 21
22.0638
 31
0.0
  0
LINE
  8
0
 62
     0
 10
282.462
 20
22.0638
 30
0.0
 11
284.187
 21
22.0638
 31
0.0
  0
LINE
  8
0
 62
     0
 10
284.187
 20
22.0638
 30
0.0
 11
284.187
 21
21.0826
 31
0.0
  0
LINE
  8
0
 62
     0
 10
284.187
 20
21.0826
 30
0.0
 11
287.488
 21
21.0826
 31
0.0
  0
LINE
  8
0
 62
     0
 10
287.488
 20
21.0826
 30
0.0
 11
287.488
 21
22.0638
 31
0.0
  0
LINE
  8
0
 62
     0
 10
287.488
 20
22.0638
 30
0.0
 11
289.213
 21
22.0638
 31
0.0
  0
LINE
  8
0
 62
     0
 10
289.213
 20
22.0638
 30
0.0
 11
289.213
 21
28.3338
 31
0.0
  0
LINE
  8
0
 62
     0
 10
289.213
 20
28.3338
 30
0.0
 11
290.037
 21
28.3338
 31
0.0
  0
LINE
  8
0
 62
     0
 10
290.037
 20
28.3338
 30
0.0
 11
290.037
 21
31.1326
 31
0.0
  0
LINE
  8
0
 62
     0
 10
290.037
 20
31.1326
 30
0.0
 11
289.213
 21
31.1326
 31
0.0
  0
LINE
  8
0
 62
     0
 10
289.213
 20
31.1326
 30
0.0
 11
289.213
 21
34.3628
 31
0.0
  0
LINE
  8
0
 62
     0
 10
289.213
 20
34.3628
 30
0.0
 11
287.488
 21
34.3628
 31
0.0
  0
LINE
  8
0
 62
     0
 10
287.488
 20
34.3628
 30
0.0
 11
287.488
 21
35.2848
 31
0.0
  0
LINE
  8
0
 62
     0
 10
287.488
 20
35.2848
 30
0.0
 11
284.187
 21
35.2848
 31
0.0
  0
LINE
  8
0
 62
     0
 10
284.187
 20
35.2848
 30
0.0
 11
284.187
 21
34.3628
 31
0.0
  0
LINE
  8
0
 62
     0
 10
284.187
 20
34.3628
 30
0.0
 11
282.462
 21
34.3628
 31
0.0
  0
LINE
  8
0
 62
     0
 10
282.462
 20
34.3628
 30
0.0
 11
282.462
 21
31.1326
 31
0.0
  0
LINE
  8
0
 62
     0
 10
282.462
 20
31.1326
 30
0.0
 11
280.938
 21
31.1326
 31
0.0
  0
LINE
  8
0
 62
     0
 10
280.938
 20
31.1326
 30
0.0
 11
280.938
 21
35.833
 31
0.0
  0
LINE
  8
0
 62
     0
 10
280.938
 20
35.833
 30
0.0
 11
266.937
 21
35.833
 31
0.0
  0
LINE
  8
0
 62
     0
 10
45.4822
 20
35.833
 30
0.0
 11
59.4815
 21
35.833
 31
0.0
  0
LINE
  8
0
 62
     0
 10
59.4815
 20
35.833
 30
0.0
 11
59.4815
 21
21.8336
 31
0.0
  0
LINE
  8
0
 62
     0
 10
59.4815
 20
21.8336
 30
0.0
 11
45.4822
 21
21.8336
 31
0.0
  0
LINE
  8
0
 62
     0
 10
45.4822
 20
21.8336
 30
0.0
 11
45.4822
 21
35.833
 31
0.0
  0
LINE
  8
0
 62
     0
 10
64.5322
 20
35.833
 30
0.0
 11
78.5315
 21
35.833
 31
0.0
  0
LINE
  8
0
 62
     0
 10
78.5315
 20
35.833
 30
0.0
 11
78.5315
 21
21.8336
 31
0.0
  0
LINE
  8
0
 62
     0
 10
78.5315
 20
21.8336
 30
0.0
 11
64.5322
 21
21.8336
 31
0.0
  0
LINE
  8
0
 62
     0
 10
64.5322
 20
21.8336
 30
0.0
 11
64.5322
 21
35.833
 31
0.0
  0
LINE
  8
0
 62
     0
 10
83.5822
 20
35.833
 30
0.0
 11
97.5815
 21
35.833
 31
0.0
  0
LINE
  8
0
 62
     0
 10
97.5815
 20
35.833
 30
0.0
 11
97.5815
 21
21.8336
 31
0.0
  0
LINE
  8
0
 62
     0
 10
97.5815
 20
21.8336
 30
0.0
 11
83.5822
 21
21.8336
 31
0.0
  0
LINE
  8
0
 62
     0
 10
83.5822
 20
21.8336
 30
0.0
 11
83.5822
 21
35.833
 31
0.0
  0
LINE
  8
0
 62
     0
 10
102.632
 20
35.833
 30
0.0
 11
116.632
 21
35.833
 31
0.0
  0
LINE
  8
0
 62
     0
 10
116.632
 20
35.833
 30
0.0
 11
116.632
 21
21.8336
 31
0.0
  0
LINE
  8
0
 62
     0
 10
116.632
 20
21.8336
 30
0.0
 11
102.632
 21
21.8336
 31
0.0
  0
LINE
  8
0
 62
     0
 10
102.632
 20
21.8336
 30
0.0
 11
102.632
 21
35.833
 31
0.0
  0
LINE
  8
0
 62
     0
 10
121.682
 20
35.833
 30
0.0
 11
135.682
 21
35.833
 31
0.0
  0
LINE
  8
0
 62
     0
 10
135.682
 20
35.833
 30
0.0
 11
135.682
 21
21.8336
 31
0.0
  0
LINE
  8
0
 62
     0
 10
135.682
 20
21.8336
 30
0.0
 11
121.682
 21
21.8336
 31
0.0
  0
LINE
  8
0
 62
     0
 10
121.682
 20
21.8336
 30
0.0
 11
121.682
 21
35.833
 31
0.0
  0
LINE
  8
0
 62
     0
 10
140.732
 20
35.833
 30
0.0
 11
154.732
 21
35.833
 31
0.0
  0
LINE
  8
0
 62
     0
 10
154.732
 20
35.833
 30
0.0
 11
154.732
 21
21.8336
 31
0.0
  0
LINE
  8
0
 62
     0
 10
154.732
 20
21.8336
 30
0.0
 11
140.732
 21
21.8336
 31
0.0
  0
LINE
  8
0
 62
     0
 10
140.732
 20
21.8336
 30
0.0
 11
140.732
 21
35.833
 31
0.0
  0
LINE
  8
0
 62
     0
 10
159.782
 20
35.833
 30
0.0
 11
173.782
 21
35.833
 31
0.0
  0
LINE
  8
0
 62
     0
 10
173.782
 20
35.833
 30
0.0
 11
173.782
 21
21.8336
 31
0.0
  0
LINE
  8
0
 62
     0
 10
173.782
 20
21.8336
 30
0.0
 11
159.782
 21
21.8336
 31
0.0
  0
LINE
  8
0
 62
     0
 10
159.782
 20
21.8336
 30
0.0
 11
159.782
 21
35.833
 31
0.0
  0
LINE
  8
0
 62
     0
 10
178.832
 20
35.833
 30
0.0
 11
192.832
 21
35.833
 31
0.0
  0
LINE
  8
0
 62
     0
 10
192.832
 20
35.833
 30
0.0
 11
192.832
 21
21.8336
 31
0.0
  0
LINE
  8
0
 62
     0
 10
192.832
 20
21.8336
 30
0.0
 11
178.832
 21
21.8336
 31
0.0
  0
LINE
  8
0
 62
     0
 10
178.832
 20
21.8336
 30
0.0
 11
178.832
 21
35.833
 31
0.0
  0
LINE
  8
0
 62
     0
 10
197.882
 20
35.833
 30
0.0
 11
211.882
 21
35.833
 31
0.0
  0
LINE
  8
0
 62
     0
 10
211.882
 20
35.833
 30
0.0
 11
211.882
 21
21.8336
 31
0.0
  0
LINE
  8
0
 62
     0
 10
211.882
 20
21.8336
 30
0.0
 11
197.882
 21
21.8336
 31
0.0
  0
LINE
  8
0
 62
     0
 10
197.882
 20
21.8336
 30
0.0
 11
197.882
 21
35.833
 31
0.0
  0
LINE
  8
0
 62
     0
 10
216.932
 20
35.833
 30
0.0
 11
230.932
 21
35.833
 31
0.0
  0
LINE
  8
0
 62
     0
 10
230.932
 20
35.833
 30
0.0
 11
230.932
 21
21.8336
 31
0.0
  0
LINE
  8
0
 62
     0
 10
230.932
 20
21.8336
 30
0.0
 11
216.932
 21
21.8336
 31
0.0
  0
LINE
  8
0
 62
     0
 10
216.932
 20
21.8336
 30
0.0
 11
216.932
 21
35.833
 31
0.0
  0
LINE
  8
0
 62
     0
 10
235.982
 20
35.833
 30
0.0
 11
249.982
 21
35.833
 31
0.0
  0
LINE
  8
0
 62
     0
 10
249.982
 20
35.833
 30
0.0
 11
249.982
 21
21.8336
 31
0.0
  0
LINE
  8
0
 62
     0
 10
249.982
 20
21.8336
 30
0.0
 11
235.982
 21
21.8336
 31
0.0
  0
LINE
  8
0
 62
     0
 10
235.982
 20
21.8336
 30
0.0
 11
235.982
 21
35.833
 31
0.0
  0
LINE
  8
0
 62
     0
 10
307.42
 20
35.833
 30
0.0
 11
321.419
 21
35.833
 31
0.0
  0
LINE
  8
0
 62
     0
 10
321.419
 20
35.833
 30
0.0
 11
321.419
 21
21.8336
 31
0.0
  0
LINE
  8
0
 62
     0
 10
321.419
 20
21.8336
 30
0.0
 11
307.42
 21
21.8336
 31
0.0
  0
LINE
  8
0
 62
     0
 10
307.42
 20
21.8336
 30
0.0
 11
307.42
 21
35.833
 31
0.0
  0
LINE
  8
0
 62
     0
 10
326.47
 20
35.833
 30
0.0
 11
340.469
 21
35.833
 31
0.0
  0
LINE
  8
0
 62
     0
 10
340.469
 20
35.833
 30
0.0
 11
340.469
 21
21.8336
 31
0.0
  0
LINE
  8
0
 62
     0
 10
340.469
 20
21.8336
 30
0.0
 11
326.47
 21
21.8336
 31
0.0
  0
LINE
  8
0
 62
     0
 10
326.47
 20
21.8336
 30
0.0
 11
326.47
 21
35.833
 31
0.0
  0
LINE
  8
0
 62
     0
 10
345.52
 20
35.833
 30
0.0
 11
359.519
 21
35.833
 31
0.0
  0
LINE
  8
0
 62
     0
 10
359.519
 20
35.833
 30
0.0
 11
359.519
 21
21.8336
 31
0.0
  0
LINE
  8
0
 62
     0
 10
359.519
 20
21.8336
 30
0.0
 11
345.52
 21
21.8336
 31
0.0
  0
LINE
  8
0
 62
     0
 10
345.52
 20
21.8336
 30
0.0
 11
345.52
 21
35.833
 31
0.0
  0
LINE
  8
0
 62
     0
 10
371.069
 20
54.4587
 30
0.0
 11
371.069
 21
53.6332
 31
0.0
  0
LINE
  8
0
 62
     0
 10
371.069
 20
53.6332
 30
0.0
 11
364.8
 21
53.6332
 31
0.0
  0
LINE
  8
0
 62
     0
 10
364.8
 20
53.6332
 30
0.0
 11
364.8
 21
51.9095
 31
0.0
  0
LINE
  8
0
 62
     0
 10
364.8
 20
51.9095
 30
0.0
 11
363.82
 21
51.9095
 31
0.0
  0
LINE
  8
0
 62
     0
 10
363.82
 20
51.9095
 30
0.0
 11
363.82
 21
48.6089
 31
0.0
  0
LINE
  8
0
 62
     0
 10
363.82
 20
48.6089
 30
0.0
 11
364.8
 21
48.6089
 31
0.0
  0
LINE
  8
0
 62
     0
 10
364.8
 20
48.6089
 30
0.0
 11
364.8
 21
46.8835
 31
0.0
  0
LINE
  8
0
 62
     0
 10
364.8
 20
46.8835
 30
0.0
 11
369.27
 21
46.8835
 31
0.0
  0
LINE
  8
0
 62
     0
 10
369.27
 20
46.8835
 30
0.0
 11
369.27
 21
45.3581
 31
0.0
  0
LINE
  8
0
 62
     0
 10
369.27
 20
45.3581
 30
0.0
 11
364.571
 21
45.3581
 31
0.0
  0
LINE
  8
0
 62
     0
 10
364.571
 20
45.3581
 30
0.0
 11
364.571
 21
31.3586
 31
0.0
  0
LINE
  8
0
 62
     0
 10
364.571
 20
31.3586
 30
0.0
 11
369.27
 21
31.3586
 31
0.0
  0
LINE
  8
0
 62
     0
 10
369.27
 20
31.3586
 30
0.0
 11
369.27
 21
29.8331
 31
0.0
  0
LINE
  8
0
 62
     0
 10
369.27
 20
29.8331
 30
0.0
 11
364.8
 21
29.8331
 31
0.0
  0
LINE
  8
0
 62
     0
 10
364.8
 20
29.8331
 30
0.0
 11
364.8
 21
28.1079
 31
0.0
  0
LINE
  8
0
 62
     0
 10
364.8
 20
28.1079
 30
0.0
 11
363.82
 21
28.1079
 31
0.0
  0
LINE
  8
0
 62
     0
 10
363.82
 20
28.1079
 30
0.0
 11
363.82
 21
24.8088
 31
0.0
  0
LINE
  8
0
 62
     0
 10
363.82
 20
24.8088
 30
0.0
 11
364.8
 21
24.8088
 31
0.0
  0
LINE
  8
0
 62
     0
 10
364.8
 20
24.8088
 30
0.0
 11
364.8
 21
23.0835
 31
0.0
  0
LINE
  8
0
 62
     0
 10
364.8
 20
23.0835
 30
0.0
 11
371.069
 21
23.0835
 31
0.0
  0
LINE
  8
0
 62
     0
 10
371.069
 20
23.0835
 30
0.0
 11
371.069
 21
22.2581
 31
0.0
  0
LINE
  8
0
 62
     0
 10
371.069
 20
22.2581
 30
0.0
 11
373.87
 21
22.2581
 31
0.0
  0
LINE
  8
0
 62
     0
 10
373.87
 20
22.2581
 30
0.0
 11
373.87
 21
23.0835
 31
0.0
  0
LINE
  8
0
 62
     0
 10
373.87
 20
23.0835
 30
0.0
 11
377.102
 21
23.0835
 31
0.0
  0
LINE
  8
0
 62
     0
 10
377.102
 20
23.0835
 30
0.0
 11
377.102
 21
24.8088
 31
0.0
  0
LINE
  8
0
 62
     0
 10
377.102
 20
24.8088
 30
0.0
 11
378.019
 21
24.8088
 31
0.0
  0
LINE
  8
0
 62
     0
 10
378.019
 20
24.8088
 30
0.0
 11
378.019
 21
28.1079
 31
0.0
  0
LINE
  8
0
 62
     0
 10
378.019
 20
28.1079
 30
0.0
 11
377.102
 21
28.1079
 31
0.0
  0
LINE
  8
0
 62
     0
 10
377.102
 20
28.1079
 30
0.0
 11
377.102
 21
29.8331
 31
0.0
  0
LINE
  8
0
 62
     0
 10
377.102
 20
29.8331
 30
0.0
 11
373.87
 21
29.8331
 31
0.0
  0
LINE
  8
0
 62
     0
 10
373.87
 20
29.8331
 30
0.0
 11
373.87
 21
31.3586
 31
0.0
  0
LINE
  8
0
 62
     0
 10
373.87
 20
31.3586
 30
0.0
 11
378.569
 21
31.3586
 31
0.0
  0
LINE
  8
0
 62
     0
 10
378.569
 20
31.3586
 30
0.0
 11
378.569
 21
45.3581
 31
0.0
  0
LINE
  8
0
 62
     0
 10
378.569
 20
45.3581
 30
0.0
 11
373.87
 21
45.3581
 31
0.0
  0
LINE
  8
0
 62
     0
 10
373.87
 20
45.3581
 30
0.0
 11
373.87
 21
46.8835
 31
0.0
  0
LINE
  8
0
 62
     0
 10
373.87
 20
46.8835
 30
0.0
 11
377.102
 21
46.8835
 31
0.0
  0
LINE
  8
0
 62
     0
 10
377.102
 20
46.8835
 30
0.0
 11
377.102
 21
48.6089
 31
0.0
  0
LINE
  8
0
 62
     0
 10
377.102
 20
48.6089
 30
0.0
 11
378.019
 21
48.6089
 31
0.0
  0
LINE
  8
0
 62
     0
 10
378.019
 20
48.6089
 30
0.0
 11
378.019
 21
51.9095
 31
0.0
  0
LINE
  8
0
 62
     0
 10
378.019
 20
51.9095
 30
0.0
 11
377.102
 21
51.9095
 31
0.0
  0
LINE
  8
0
 62
     0
 10
377.102
 20
51.9095
 30
0.0
 11
377.102
 21
53.6332
 31
0.0
  0
LINE
  8
0
 62
     0
 10
377.102
 20
53.6332
 30
0.0
 11
373.87
 21
53.6332
 31
0.0
  0
LINE
  8
0
 62
     0
 10
373.87
 20
53.6332
 30
0.0
 11
373.87
 21
54.4587
 31
0.0
  0
LINE
  8
0
 62
     0
 10
373.87
 20
54.4587
 30
0.0
 11
371.069
 21
54.4587
 31
0.0
  0
LINE
  8
0
 62
     0
 10
9.76203
 20
54.8831
 30
0.0
 11
23.7629
 21
54.8831
 31
0.0
  0
LINE
  8
0
 62
     0
 10
23.7629
 20
54.8831
 30
0.0
 11
23.7629
 21
40.8838
 31
0.0
  0
LINE
  8
0
 62
     0
 10
23.7629
 20
40.8838
 30
0.0
 11
9.76203
 21
40.8838
 31
0.0
  0
LINE
  8
0
 62
     0
 10
9.76203
 20
40.8838
 30
0.0
 11
9.76203
 21
54.8831
 31
0.0
  0
LINE
  8
0
 62
     0
 10
35.9572
 20
54.8831
 30
0.0
 11
49.9565
 21
54.8831
 31
0.0
  0
LINE
  8
0
 62
     0
 10
49.9565
 20
54.8831
 30
0.0
 11
49.9565
 21
40.8838
 31
0.0
  0
LINE
  8
0
 62
     0
 10
49.9565
 20
40.8838
 30
0.0
 11
35.9572
 21
40.8838
 31
0.0
  0
LINE
  8
0
 62
     0
 10
35.9572
 20
40.8838
 30
0.0
 11
35.9572
 21
54.8831
 31
0.0
  0
LINE
  8
0
 62
     0
 10
55.0072
 20
54.8831
 30
0.0
 11
69.0065
 21
54.8831
 31
0.0
  0
LINE
  8
0
 62
     0
 10
69.0065
 20
54.8831
 30
0.0
 11
69.0065
 21
40.8838
 31
0.0
  0
LINE
  8
0
 62
     0
 10
69.0065
 20
40.8838
 30
0.0
 11
55.0072
 21
40.8838
 31
0.0
  0
LINE
  8
0
 62
     0
 10
55.0072
 20
40.8838
 30
0.0
 11
55.0072
 21
54.8831
 31
0.0
  0
LINE
  8
0
 62
     0
 10
74.0572
 20
54.8831
 30
0.0
 11
88.0565
 21
54.8831
 31
0.0
  0
LINE
  8
0
 62
     0
 10
88.0565
 20
54.8831
 30
0.0
 11
88.0565
 21
40.8838
 31
0.0
  0
LINE
  8
0
 62
     0
 10
88.0565
 20
40.8838
 30
0.0
 11
74.0572
 21
40.8838
 31
0.0
  0
LINE
  8
0
 62
     0
 10
74.0572
 20
40.8838
 30
0.0
 11
74.0572
 21
54.8831
 31
0.0
  0
LINE
  8
0
 62
     0
 10
93.1072
 20
54.8831
 30
0.0
 11
107.107
 21
54.8831
 31
0.0
  0
LINE
  8
0
 62
     0
 10
107.107
 20
54.8831
 30
0.0
 11
107.107
 21
40.8838
 31
0.0
  0
LINE
  8
0
 62
     0
 10
107.107
 20
40.8838
 30
0.0
 11
93.1072
 21
40.8838
 31
0.0
  0
LINE
  8
0
 62
     0
 10
93.1072
 20
40.8838
 30
0.0
 11
93.1072
 21
54.8831
 31
0.0
  0
LINE
  8
0
 62
     0
 10
112.157
 20
54.8831
 30
0.0
 11
126.157
 21
54.8831
 31
0.0
  0
LINE
  8
0
 62
     0
 10
126.157
 20
54.8831
 30
0.0
 11
126.157
 21
40.8838
 31
0.0
  0
LINE
  8
0
 62
     0
 10
126.157
 20
40.8838
 30
0.0
 11
112.157
 21
40.8838
 31
0.0
  0
LINE
  8
0
 62
     0
 10
112.157
 20
40.8838
 30
0.0
 11
112.157
 21
54.8831
 31
0.0
  0
LINE
  8
0
 62
     0
 10
131.207
 20
54.8831
 30
0.0
 11
145.207
 21
54.8831
 31
0.0
  0
LINE
  8
0
 62
     0
 10
145.207
 20
54.8831
 30
0.0
 11
145.207
 21
40.8838
 31
0.0
  0
LINE
  8
0
 62
     0
 10
145.207
 20
40.8838
 30
0.0
 11
131.207
 21
40.8838
 31
0.0
  0
LINE
  8
0
 62
     0
 10
131.207
 20
40.8838
 30
0.0
 11
131.207
 21
54.8831
 31
0.0
  0
LINE
  8
0
 62
     0
 10
150.257
 20
54.8831
 30
0.0
 11
164.257
 21
54.8831
 31
0.0
  0
LINE
  8
0
 62
     0
 10
164.257
 20
54.8831
 30
0.0
 11
164.257
 21
40.8838
 31
0.0
  0
LINE
  8
0
 62
     0
 10
164.257
 20
40.8838
 30
0.0
 11
150.257
 21
40.8838
 31
0.0
  0
LINE
  8
0
 62
     0
 10
150.257
 20
40.8838
 30
0.0
 11
150.257
 21
54.8831
 31
0.0
  0
LINE
  8
0
 62
     0
 10
169.307
 20
54.8831
 30
0.0
 11
183.307
 21
54.8831
 31
0.0
  0
LINE
  8
0
 62
     0
 10
183.307
 20
54.8831
 30
0.0
 11
183.307
 21
40.8838
 31
0.0
  0
LINE
  8
0
 62
     0
 10
183.307
 20
40.8838
 30
0.0
 11
169.307
 21
40.8838
 31
0.0
  0
LINE
  8
0
 62
     0
 10
169.307
 20
40.8838
 30
0.0
 11
169.307
 21
54.8831
 31
0.0
  0
LINE
  8
0
 62
     0
 10
188.357
 20
54.8831
 30
0.0
 11
202.357
 21
54.8831
 31
0.0
  0
LINE
  8
0
 62
     0
 10
202.357
 20
54.8831
 30
0.0
 11
202.357
 21
40.8838
 31
0.0
  0
LINE
  8
0
 62
     0
 10
202.357
 20
40.8838
 30
0.0
 11
188.357
 21
40.8838
 31
0.0
  0
LINE
  8
0
 62
     0
 10
188.357
 20
40.8838
 30
0.0
 11
188.357
 21
54.8831
 31
0.0
  0
LINE
  8
0
 62
     0
 10
207.407
 20
54.8831
 30
0.0
 11
221.407
 21
54.8831
 31
0.0
  0
LINE
  8
0
 62
     0
 10
221.407
 20
54.8831
 30
0.0
 11
221.407
 21
40.8838
 31
0.0
  0
LINE
  8
0
 62
     0
 10
221.407
 20
40.8838
 30
0.0
 11
207.407
 21
40.8838
 31
0.0
  0
LINE
  8
0
 62
     0
 10
207.407
 20
40.8838
 30
0.0
 11
207.407
 21
54.8831
 31
0.0
  0
LINE
  8
0
 62
     0
 10
226.457
 20
54.8831
 30
0.0
 11
240.457
 21
54.8831
 31
0.0
  0
LINE
  8
0
 62
     0
 10
240.457
 20
54.8831
 30
0.0
 11
240.457
 21
40.8838
 31
0.0
  0
LINE
  8
0
 62
     0
 10
240.457
 20
40.8838
 30
0.0
 11
226.457
 21
40.8838
 31
0.0
  0
LINE
  8
0
 62
     0
 10
226.457
 20
40.8838
 30
0.0
 11
226.457
 21
54.8831
 31
0.0
  0
LINE
  8
0
 62
     0
 10
245.507
 20
54.8831
 30
0.0
 11
259.507
 21
54.8831
 31
0.0
  0
LINE
  8
0
 62
     0
 10
259.507
 20
54.8831
 30
0.0
 11
259.507
 21
40.8838
 31
0.0
  0
LINE
  8
0
 62
     0
 10
259.507
 20
40.8838
 30
0.0
 11
245.507
 21
40.8838
 31
0.0
  0
LINE
  8
0
 62
     0
 10
245.507
 20
40.8838
 30
0.0
 11
245.507
 21
54.8831
 31
0.0
  0
LINE
  8
0
 62
     0
 10
271.701
 20
54.8831
 30
0.0
 11
285.7
 21
54.8831
 31
0.0
  0
LINE
  8
0
 62
     0
 10
285.7
 20
54.8831
 30
0.0
 11
285.7
 21
40.8838
 31
0.0
  0
LINE
  8
0
 62
     0
 10
285.7
 20
40.8838
 30
0.0
 11
271.701
 21
40.8838
 31
0.0
  0
LINE
  8
0
 62
     0
 10
271.701
 20
40.8838
 30
0.0
 11
271.701
 21
54.8831
 31
0.0
  0
LINE
  8
0
 62
     0
 10
307.42
 20
54.8831
 30
0.0
 11
321.419
 21
54.8831
 31
0.0
  0
LINE
  8
0
 62
     0
 10
321.419
 20
54.8831
 30
0.0
 11
321.419
 21
40.8838
 31
0.0
  0
LINE
  8
0
 62
     0
 10
321.419
 20
40.8838
 30
0.0
 11
307.42
 21
40.8838
 31
0.0
  0
LINE
  8
0
 62
     0
 10
307.42
 20
40.8838
 30
0.0
 11
307.42
 21
54.8831
 31
0.0
  0
LINE
  8
0
 62
     0
 10
326.47
 20
54.8831
 30
0.0
 11
340.469
 21
54.8831
 31
0.0
  0
LINE
  8
0
 62
     0
 10
340.469
 20
54.8831
 30
0.0
 11
340.469
 21
40.8838
 31
0.0
  0
LINE
  8
0
 62
     0
 10
340.469
 20
40.8838
 30
0.0
 11
326.47
 21
40.8838
 31
0.0
  0
LINE
  8
0
 62
     0
 10
326.47
 20
40.8838
 30
0.0
 11
326.47
 21
54.8831
 31
0.0
  0
LINE
  8
0
 62
     0
 10
345.52
 20
54.8831
 30
0.0
 11
359.519
 21
54.8831
 31
0.0
  0
LINE
  8
0
 62
     0
 10
359.519
 20
54.8831
 30
0.0
 11
359.519
 21
40.8838
 31
0.0
  0
LINE
  8
0
 62
     0
 10
359.519
 20
40.8838
 30
0.0
 11
345.52
 21
40.8838
 31
0.0
  0
LINE
  8
0
 62
     0
 10
345.52
 20
40.8838
 30
0.0
 11
345.52
 21
54.8831
 31
0.0
  0
LINE
  8
0
 62
     0
 10
7.38216
 20
73.9331
 30
0.0
 11
21.3817
 21
73.9331
 31
0.0
  0
LINE
  8
0
 62
     0
 10
21.3817
 20
73.9331
 30
0.0
 11
21.3817
 21
59.9338
 31
0.0
  0
LINE
  8
0
 62
     0
 10
21.3817
 20
59.9338
 30
0.0
 11
7.38216
 21
59.9338
 31
0.0
  0
LINE
  8
0
 62
     0
 10
7.38216
 20
59.9338
 30
0.0
 11
7.38216
 21
73.9331
 31
0.0
  0
LINE
  8
0
 62
     0
 10
31.1947
 20
73.9331
 30
0.0
 11
45.194
 21
73.9331
 31
0.0
  0
LINE
  8
0
 62
     0
 10
45.194
 20
73.9331
 30
0.0
 11
45.194
 21
59.9338
 31
0.0
  0
LINE
  8
0
 62
     0
 10
45.194
 20
59.9338
 30
0.0
 11
31.1947
 21
59.9338
 31
0.0
  0
LINE
  8
0
 62
     0
 10
31.1947
 20
59.9338
 30
0.0
 11
31.1947
 21
73.9331
 31
0.0
  0
LINE
  8
0
 62
     0
 10
50.2447
 20
73.9331
 30
0.0
 11
64.244
 21
73.9331
 31
0.0
  0
LINE
  8
0
 62
     0
 10
64.244
 20
73.9331
 30
0.0
 11
64.244
 21
59.9338
 31
0.0
  0
LINE
  8
0
 62
     0
 10
64.244
 20
59.9338
 30
0.0
 11
50.2447
 21
59.9338
 31
0.0
  0
LINE
  8
0
 62
     0
 10
50.2447
 20
59.9338
 30
0.0
 11
50.2447
 21
73.9331
 31
0.0
  0
LINE
  8
0
 62
     0
 10
69.2947
 20
73.9331
 30
0.0
 11
83.294
 21
73.9331
 31
0.0
  0
LINE
  8
0
 62
     0
 10
83.294
 20
73.9331
 30
0.0
 11
83.294
 21
59.9338
 31
0.0
  0
LINE
  8
0
 62
     0
 10
83.294
 20
59.9338
 30
0.0
 11
69.2947
 21
59.9338
 31
0.0
  0
LINE
  8
0
 62
     0
 10
69.2947
 20
59.9338
 30
0.0
 11
69.2947
 21
73.9331
 31
0.0
  0
LINE
  8
0
 62
     0
 10
88.3447
 20
73.9331
 30
0.0
 11
102.344
 21
73.9331
 31
0.0
  0
LINE
  8
0
 62
     0
 10
102.344
 20
73.9331
 30
0.0
 11
102.344
 21
59.9338
 31
0.0
  0
LINE
  8
0
 62
     0
 10
102.344
 20
59.9338
 30
0.0
 11
88.3447
 21
59.9338
 31
0.0
  0
LINE
  8
0
 62
     0
 10
88.3447
 20
59.9338
 30
0.0
 11
88.3447
 21
73.9331
 31
0.0
  0
LINE
  8
0
 62
     0
 10
107.395
 20
73.9331
 30
0.0
 11
121.394
 21
73.9331
 31
0.0
  0
LINE
  8
0
 62
     0
 10
121.394
 20
73.9331
 30
0.0
 11
121.394
 21
59.9338
 31
0.0
  0
LINE
  8
0
 62
     0
 10
121.394
 20
59.9338
 30
0.0
 11
107.395
 21
59.9338
 31
0.0
  0
LINE
  8
0
 62
     0
 10
107.395
 20
59.9338
 30
0.0
 11
107.395
 21
73.9331
 31
0.0
  0
LINE
  8
0
 62
     0
 10
126.445
 20
73.9331
 30
0.0
 11
140.444
 21
73.9331
 31
0.0
  0
LINE
  8
0
 62
     0
 10
140.444
 20
73.9331
 30
0.0
 11
140.444
 21
59.9338
 31
0.0
  0
LINE
  8
0
 62
     0
 10
140.444
 20
59.9338
 30
0.0
 11
126.445
 21
59.9338
 31
0.0
  0
LINE
  8
0
 62
     0
 10
126.445
 20
59.9338
 30
0.0
 11
126.445
 21
73.9331
 31
0.0
  0
LINE
  8
0
 62
     0
 10
145.495
 20
73.9331
 30
0.0
 11
159.494
 21
73.9331
 31
0.0
  0
LINE
  8
0
 62
     0
 10
159.494
 20
73.9331
 30
0.0
 11
159.494
 21
59.9338
 31
0.0
  0
LINE
  8
0
 62
     0
 10
159.494
 20
59.9338
 30
0.0
 11
145.495
 21
59.9338
 31
0.0
  0
LINE
  8
0
 62
     0
 10
145.495
 20
59.9338
 30
0.0
 11
145.495
 21
73.9331
 31
0.0
  0
LINE
  8
0
 62
     0
 10
164.545
 20
73.9331
 30
0.0
 11
178.544
 21
73.9331
 31
0.0
  0
LINE
  8
0
 62
     0
 10
178.544
 20
73.9331
 30
0.0
 11
178.544
 21
59.9338
 31
0.0
  0
LINE
  8
0
 62
     0
 10
178.544
 20
59.9338
 30
0.0
 11
164.545
 21
59.9338
 31
0.0
  0
LINE
  8
0
 62
     0
 10
164.545
 20
59.9338
 30
0.0
 11
164.545
 21
73.9331
 31
0.0
  0
LINE
  8
0
 62
     0
 10
183.595
 20
73.9331
 30
0.0
 11
197.594
 21
73.9331
 31
0.0
  0
LINE
  8
0
 62
     0
 10
197.594
 20
73.9331
 30
0.0
 11
197.594
 21
59.9338
 31
0.0
  0
LINE
  8
0
 62
     0
 10
197.594
 20
59.9338
 30
0.0
 11
183.595
 21
59.9338
 31
0.0
  0
LINE
  8
0
 62
     0
 10
183.595
 20
59.9338
 30
0.0
 11
183.595
 21
73.9331
 31
0.0
  0
LINE
  8
0
 62
     0
 10
202.645
 20
73.9331
 30
0.0
 11
216.644
 21
73.9331
 31
0.0
  0
LINE
  8
0
 62
     0
 10
216.644
 20
73.9331
 30
0.0
 11
216.644
 21
59.9338
 31
0.0
  0
LINE
  8
0
 62
     0
 10
216.644
 20
59.9338
 30
0.0
 11
202.645
 21
59.9338
 31
0.0
  0
LINE
  8
0
 62
     0
 10
202.645
 20
59.9338
 30
0.0
 11
202.645
 21
73.9331
 31
0.0
  0
LINE
  8
0
 62
     0
 10
221.695
 20
73.9331
 30
0.0
 11
235.694
 21
73.9331
 31
0.0
  0
LINE
  8
0
 62
     0
 10
235.694
 20
73.9331
 30
0.0
 11
235.694
 21
59.9338
 31
0.0
  0
LINE
  8
0
 62
     0
 10
235.694
 20
59.9338
 30
0.0
 11
221.695
 21
59.9338
 31
0.0
  0
LINE
  8
0
 62
     0
 10
221.695
 20
59.9338
 30
0.0
 11
221.695
 21
73.9331
 31
0.0
  0
LINE
  8
0
 62
     0
 10
240.745
 20
73.9331
 30
0.0
 11
254.744
 21
73.9331
 31
0.0
  0
LINE
  8
0
 62
     0
 10
254.744
 20
73.9331
 30
0.0
 11
254.744
 21
59.9338
 31
0.0
  0
LINE
  8
0
 62
     0
 10
254.744
 20
59.9338
 30
0.0
 11
240.745
 21
59.9338
 31
0.0
  0
LINE
  8
0
 62
     0
 10
240.745
 20
59.9338
 30
0.0
 11
240.745
 21
73.9331
 31
0.0
  0
LINE
  8
0
 62
     0
 10
259.795
 20
73.9331
 30
0.0
 11
273.794
 21
73.9331
 31
0.0
  0
LINE
  8
0
 62
     0
 10
273.794
 20
73.9331
 30
0.0
 11
273.794
 21
59.9338
 31
0.0
  0
LINE
  8
0
 62
     0
 10
273.794
 20
59.9338
 30
0.0
 11
259.795
 21
59.9338
 31
0.0
  0
LINE
  8
0
 62
     0
 10
259.795
 20
59.9338
 30
0.0
 11
259.795
 21
73.9331
 31
0.0
  0
LINE
  8
0
 62
     0
 10
278.845
 20
73.9331
 30
0.0
 11
292.844
 21
73.9331
 31
0.0
  0
LINE
  8
0
 62
     0
 10
292.844
 20
73.9331
 30
0.0
 11
292.844
 21
59.9338
 31
0.0
  0
LINE
  8
0
 62
     0
 10
292.844
 20
59.9338
 30
0.0
 11
278.845
 21
59.9338
 31
0.0
  0
LINE
  8
0
 62
     0
 10
278.845
 20
59.9338
 30
0.0
 11
278.845
 21
73.9331
 31
0.0
  0
LINE
  8
0
 62
     0
 10
307.42
 20
73.9331
 30
0.0
 11
321.419
 21
73.9331
 31
0.0
  0
LINE
  8
0
 62
     0
 10
321.419
 20
73.9331
 30
0.0
 11
321.419
 21
59.9338
 31
0.0
  0
LINE
  8
0
 62
     0
 10
321.419
 20
59.9338
 30
0.0
 11
307.42
 21
59.9338
 31
0.0
  0
LINE
  8
0
 62
     0
 10
307.42
 20
59.9338
 30
0.0
 11
307.42
 21
73.9331
 31
0.0
  0
LINE
  8
0
 62
     0
 10
326.47
 20
73.9331
 30
0.0
 11
340.469
 21
73.9331
 31
0.0
  0
LINE
  8
0
 62
     0
 10
340.469
 20
73.9331
 30
0.0
 11
340.469
 21
59.9338
 31
0.0
  0
LINE
  8
0
 62
     0
 10
340.469
 20
59.9338
 30
0.0
 11
326.47
 21
59.9338
 31
0.0
  0
LINE
  8
0
 62
     0
 10
326.47
 20
59.9338
 30
0.0
 11
326.47
 21
73.9331
 31
0.0
  0
LINE
  8
0
 62
     0
 10
345.52
 20
73.9331
 30
0.0
 11
359.519
 21
73.9331
 31
0.0
  0
LINE
  8
0
 62
     0
 10
359.519
 20
73.9331
 30
0.0
 11
359.519
 21
59.9338
 31
0.0
  0
LINE
  8
0
 62
     0
 10
359.519
 20
59.9338
 30
0.0
 11
345.52
 21
59.9338
 31
0.0
  0
LINE
  8
0
 62
     0
 10
345.52
 20
59.9338
 30
0.0
 11
345.52
 21
73.9331
 31
0.0
  0
LINE
  8
0
 62
     0
 10
364.571
 20
73.9331
 30
0.0
 11
378.569
 21
73.9331
 31
0.0
  0
LINE
  8
0
 62
     0
 10
378.569
 20
73.9331
 30
0.0
 11
378.569
 21
59.9338
 31
0.0
  0
LINE
  8
0
 62
     0
 10
378.569
 20
59.9338
 30
0.0
 11
364.571
 21
59.9338
 31
0.0
  0
LINE
  8
0
 62
     0
 10
364.571
 20
59.9338
 30
0.0
 11
364.571
 21
73.9331
 31
0.0
  0
LINE
  8
0
 62
     0
 10
2.61965
 20
92.9831
 30
0.0
 11
16.6192
 21
92.9831
 31
0.0
  0
LINE
  8
0
 62
     0
 10
16.6192
 20
92.9831
 30
0.0
 11
16.6192
 21
78.9838
 31
0.0
  0
LINE
  8
0
 62
     0
 10
16.6192
 20
78.9838
 30
0.0
 11
2.61965
 21
78.9838
 31
0.0
  0
LINE
  8
0
 62
     0
 10
2.61965
 20
78.9838
 30
0.0
 11
2.61965
 21
92.9831
 31
0.0
  0
LINE
  8
0
 62
     0
 10
21.6697
 20
92.9831
 30
0.0
 11
35.669
 21
92.9831
 31
0.0
  0
LINE
  8
0
 62
     0
 10
35.669
 20
92.9831
 30
0.0
 11
35.669
 21
78.9838
 31
0.0
  0
LINE
  8
0
 62
     0
 10
35.669
 20
78.9838
 30
0.0
 11
21.6697
 21
78.9838
 31
0.0
  0
LINE
  8
0
 62
     0
 10
21.6697
 20
78.9838
 30
0.0
 11
21.6697
 21
92.9831
 31
0.0
  0
LINE
  8
0
 62
     0
 10
40.7197
 20
92.9831
 30
0.0
 11
54.719
 21
92.9831
 31
0.0
  0
LINE
  8
0
 62
     0
 10
54.719
 20
92.9831
 30
0.0
 11
54.719
 21
78.9838
 31
0.0
  0
LINE
  8
0
 62
     0
 10
54.719
 20
78.9838
 30
0.0
 11
40.7197
 21
78.9838
 31
0.0
  0
LINE
  8
0
 62
     0
 10
40.7197
 20
78.9838
 30
0.0
 11
40.7197
 21
92.9831
 31
0.0
  0
LINE
  8
0
 62
     0
 10
59.7697
 20
92.9831
 30
0.0
 11
73.769
 21
92.9831
 31
0.0
  0
LINE
  8
0
 62
     0
 10
73.769
 20
92.9831
 30
0.0
 11
73.769
 21
78.9838
 31
0.0
  0
LINE
  8
0
 62
     0
 10
73.769
 20
78.9838
 30
0.0
 11
59.7697
 21
78.9838
 31
0.0
  0
LINE
  8
0
 62
     0
 10
59.7697
 20
78.9838
 30
0.0
 11
59.7697
 21
92.9831
 31
0.0
  0
LINE
  8
0
 62
     0
 10
78.8197
 20
92.9831
 30
0.0
 11
92.819
 21
92.9831
 31
0.0
  0
LINE
  8
0
 62
     0
 10
92.819
 20
92.9831
 30
0.0
 11
92.819
 21
78.9838
 31
0.0
  0
LINE
  8
0
 62
     0
 10
92.819
 20
78.9838
 30
0.0
 11
78.8197
 21
78.9838
 31
0.0
  0
LINE
  8
0
 62
     0
 10
78.8197
 20
78.9838
 30
0.0
 11
78.8197
 21
92.9831
 31
0.0
  0
LINE
  8
0
 62
     0
 10
97.8683
 20
92.9831
 30
0.0
 11
111.869
 21
92.9831
 31
0.0
  0
LINE
  8
0
 62
     0
 10
111.869
 20
92.9831
 30
0.0
 11
111.869
 21
78.9838
 31
0.0
  0
LINE
  8
0
 62
     0
 10
111.869
 20
78.9838
 30
0.0
 11
97.8683
 21
78.9838
 31
0.0
  0
LINE
  8
0
 62
     0
 10
97.8683
 20
78.9838
 30
0.0
 11
97.8683
 21
92.9831
 31
0.0
  0
LINE
  8
0
 62
     0
 10
116.918
 20
92.9831
 30
0.0
 11
130.919
 21
92.9831
 31
0.0
  0
LINE
  8
0
 62
     0
 10
130.919
 20
92.9831
 30
0.0
 11
130.919
 21
78.9838
 31
0.0
  0
LINE
  8
0
 62
     0
 10
130.919
 20
78.9838
 30
0.0
 11
116.918
 21
78.9838
 31
0.0
  0
LINE
  8
0
 62
     0
 10
116.918
 20
78.9838
 30
0.0
 11
116.918
 21
92.9831
 31
0.0
  0
LINE
  8
0
 62
     0
 10
135.97
 20
92.9831
 30
0.0
 11
149.969
 21
92.9831
 31
0.0
  0
LINE
  8
0
 62
     0
 10
149.969
 20
92.9831
 30
0.0
 11
149.969
 21
78.9838
 31
0.0
  0
LINE
  8
0
 62
     0
 10
149.969
 20
78.9838
 30
0.0
 11
135.97
 21
78.9838
 31
0.0
  0
LINE
  8
0
 62
     0
 10
135.97
 20
78.9838
 30
0.0
 11
135.97
 21
92.9831
 31
0.0
  0
LINE
  8
0
 62
     0
 10
155.02
 20
92.9831
 30
0.0
 11
169.019
 21
92.9831
 31
0.0
  0
LINE
  8
0
 62
     0
 10
169.019
 20
92.9831
 30
0.0
 11
169.019
 21
78.9838
 31
0.0
  0
LINE
  8
0
 62
     0
 10
169.019
 20
78.9838
 30
0.0
 11
155.02
 21
78.9838
 31
0.0
  0
LINE
  8
0
 62
     0
 10
155.02
 20
78.9838
 30
0.0
 11
155.02
 21
92.9831
 31
0.0
  0
LINE
  8
0
 62
     0
 10
174.07
 20
92.9831
 30
0.0
 11
188.069
 21
92.9831
 31
0.0
  0
LINE
  8
0
 62
     0
 10
188.069
 20
92.9831
 30
0.0
 11
188.069
 21
78.9838
 31
0.0
  0
LINE
  8
0
 62
     0
 10
188.069
 20
78.9838
 30
0.0
 11
174.07
 21
78.9838
 31
0.0
  0
LINE
  8
0
 62
     0
 10
174.07
 20
78.9838
 30
0.0
 11
174.07
 21
92.9831
 31
0.0
  0
LINE
  8
0
 62
     0
 10
193.12
 20
92.9831
 30
0.0
 11
207.119
 21
92.9831
 31
0.0
  0
LINE
  8
0
 62
     0
 10
207.119
 20
92.9831
 30
0.0
 11
207.119
 21
78.9838
 31
0.0
  0
LINE
  8
0
 62
     0
 10
207.119
 20
78.9838
 30
0.0
 11
193.12
 21
78.9838
 31
0.0
  0
LINE
  8
0
 62
     0
 10
193.12
 20
78.9838
 30
0.0
 11
193.12
 21
92.9831
 31
0.0
  0
LINE
  8
0
 62
     0
 10
212.17
 20
92.9831
 30
0.0
 11
226.169
 21
92.9831
 31
0.0
  0
LINE
  8
0
 62
     0
 10
226.169
 20
92.9831
 30
0.0
 11
226.169
 21
78.9838
 31
0.0
  0
LINE
  8
0
 62
     0
 10
226.169
 20
78.9838
 30
0.0
 11
212.17
 21
78.9838
 31
0.0
  0
LINE
  8
0
 62
     0
 10
212.17
 20
78.9838
 30
0.0
 11
212.17
 21
92.9831
 31
0.0
  0
LINE
  8
0
 62
     0
 10
231.22
 20
92.9831
 30
0.0
 11
245.219
 21
92.9831
 31
0.0
  0
LINE
  8
0
 62
     0
 10
245.219
 20
92.9831
 30
0.0
 11
245.219
 21
78.9838
 31
0.0
  0
LINE
  8
0
 62
     0
 10
245.219
 20
78.9838
 30
0.0
 11
231.22
 21
78.9838
 31
0.0
  0
LINE
  8
0
 62
     0
 10
231.22
 20
78.9838
 30
0.0
 11
231.22
 21
92.9831
 31
0.0
  0
LINE
  8
0
 62
     0
 10
250.27
 20
92.9831
 30
0.0
 11
264.269
 21
92.9831
 31
0.0
  0
LINE
  8
0
 62
     0
 10
264.269
 20
92.9831
 30
0.0
 11
264.269
 21
78.9838
 31
0.0
  0
LINE
  8
0
 62
     0
 10
264.269
 20
78.9838
 30
0.0
 11
250.27
 21
78.9838
 31
0.0
  0
LINE
  8
0
 62
     0
 10
250.27
 20
78.9838
 30
0.0
 11
250.27
 21
92.9831
 31
0.0
  0
LINE
  8
0
 62
     0
 10
274.082
 20
92.9831
 30
0.0
 11
288.082
 21
92.9831
 31
0.0
  0
LINE
  8
0
 62
     0
 10
288.082
 20
92.9831
 30
0.0
 11
288.082
 21
78.9838
 31
0.0
  0
LINE
  8
0
 62
     0
 10
288.082
 20
78.9838
 30
0.0
 11
274.082
 21
78.9838
 31
0.0
  0
LINE
  8
0
 62
     0
 10
274.082
 20
78.9838
 30
0.0
 11
274.082
 21
92.9831
 31
0.0
  0
LINE
  8
0
 62
     0
 10
307.42
 20
92.9831
 30
0.0
 11
321.419
 21
92.9831
 31
0.0
  0
LINE
  8
0
 62
     0
 10
321.419
 20
92.9831
 30
0.0
 11
321.419
 21
78.9838
 31
0.0
  0
LINE
  8
0
 62
     0
 10
321.419
 20
78.9838
 30
0.0
 11
307.42
 21
78.9838
 31
0.0
  0
LINE
  8
0
 62
     0
 10
307.42
 20
78.9838
 30
0.0
 11
307.42
 21
92.9831
 31
0.0
  0
LINE
  8
0
 62
     0
 10
326.47
 20
92.9831
 30
0.0
 11
340.469
 21
92.9831
 31
0.0
  0
LINE
  8
0
 62
     0
 10
340.469
 20
92.9831
 30
0.0
 11
340.469
 21
78.9838
 31
0.0
  0
LINE
  8
0
 62
     0
 10
340.469
 20
78.9838
 30
0.0
 11
326.47
 21
78.9838
 31
0.0
  0
LINE
  8
0
 62
     0
 10
326.47
 20
78.9838
 30
0.0
 11
326.47
 21
92.9831
 31
0.0
  0
LINE
  8
0
 62
     0
 10
345.52
 20
92.9831
 30
0.0
 11
359.519
 21
92.9831
 31
0.0
  0
LINE
  8
0
 62
     0
 10
359.519
 20
92.9831
 30
0.0
 11
359.519
 21
78.9838
 31
0.0
  0
LINE
  8
0
 62
     0
 10
359.519
 20
78.9838
 30
0.0
 11
345.52
 21
78.9838
 31
0.0
  0
LINE
  8
0
 62
     0
 10
345.52
 20
78.9838
 30
0.0
 11
345.52
 21
92.9831
 31
0.0
  0
LINE
  8
0
 62
     0
 10
364.571
 20
92.9831
 30
0.0
 11
378.569
 21
92.9831
 31
0.0
  0
LINE
  8
0
 62
     0
 10
378.569
 20
92.9831
 30
0.0
 11
378.569
 21
78.9838
 31
0.0
  0
LINE
  8
0
 62
     0
 10
378.569
 20
78.9838
 30
0.0
 11
364.571
 21
78.9838
 31
0.0
  0
LINE
  8
0
 62
     0
 10
364.571
 20
78.9838
 30
0.0
 11
364.571
 21
92.9831
 31
0.0
  0
ENDSEC
  0
EOF
